<svg xmlns="http://www.w3.org/2000/svg" xmlns:xlink="http://www.w3.org/1999/xlink" width="500" zoomAndPan="magnify" viewBox="0 0 375 374.999991" height="500" preserveAspectRatio="xMidYMid meet" version="1.0"><defs><g/><clipPath id="26e69ce2fd"><path d="M 0 121 L 114.75 121 L 114.75 246 L 0 246 Z M 0 121 " clip-rule="nonzero"/></clipPath><clipPath id="7724e2c485"><path d="M 267 125 L 374.929688 125 L 374.929688 242 L 267 242 Z M 267 125 " clip-rule="nonzero"/></clipPath></defs><g clip-path="url(#26e69ce2fd)"><path fill="#000000" d="M 97.445312 245.585938 C 73.792969 230.964844 40.84375 210.621094 4.316406 196.847656 C 2.730469 189.132812 1.105469 178.90625 0 171.261719 C 34.90625 156.015625 75.417969 136.335938 114.75 121.273438 C 114.640625 133.199219 114.121094 144.863281 113.125 156.679688 C 89.289062 165.28125 66.5625 174.953125 45.125 183.410156 C 67.078125 191.3125 87.890625 200.246094 106.335938 208.8125 C 104.085938 220.367188 100.582031 234.140625 97.445312 245.585938 Z M 97.445312 245.585938 " fill-opacity="1" fill-rule="nonzero"/></g><g fill="#ff0000" fill-opacity="1"><g transform="translate(98.670226, 197.732294)"><g><path d="M 11.921875 0.46875 C 9.878906 0.46875 7.988281 0.0351562 6.25 -0.828125 C 4.519531 -1.691406 3.144531 -2.898438 2.125 -4.453125 C 1.101562 -6.015625 0.59375 -7.816406 0.59375 -9.859375 L 0.59375 -12.125 L 8.59375 -12.125 L 8.59375 -9.65625 C 8.59375 -8.675781 8.898438 -7.851562 9.515625 -7.1875 C 10.140625 -6.519531 10.941406 -6.1875 11.921875 -6.1875 C 12.941406 -6.1875 13.769531 -6.53125 14.40625 -7.21875 C 15.050781 -7.90625 15.375 -8.785156 15.375 -9.859375 L 15.375 -41.140625 L 23.375 -41.140625 L 23.375 -9.859375 C 23.375 -7.816406 22.847656 -6.015625 21.796875 -4.453125 C 20.753906 -2.898438 19.367188 -1.691406 17.640625 -0.828125 C 15.910156 0.0351562 14.003906 0.46875 11.921875 0.46875 Z M 11.921875 0.46875 "/></g></g></g><g fill="#ff0000" fill-opacity="1"><g transform="translate(124.970338, 197.732294)"><g><path d="M 11.125 0.53125 C 9.5625 0.53125 8.132812 0.15625 6.84375 -0.59375 C 5.5625 -1.351562 4.53125 -2.351562 3.75 -3.59375 C 2.976562 -4.832031 2.59375 -6.207031 2.59375 -7.71875 L 2.59375 -22.765625 C 2.59375 -24.273438 2.976562 -25.660156 3.75 -26.921875 C 4.53125 -28.191406 5.5625 -29.203125 6.84375 -29.953125 C 8.132812 -30.710938 9.5625 -31.09375 11.125 -31.09375 C 12.050781 -31.09375 13.078125 -30.957031 14.203125 -30.6875 C 15.335938 -30.425781 16.617188 -29.609375 18.046875 -28.234375 L 18.90625 -30.625 L 25.5625 -30.625 L 25.5625 0 L 18.90625 0 L 18.171875 -2.125 C 16.796875 -0.882812 15.53125 -0.132812 14.375 0.125 C 13.226562 0.394531 12.144531 0.53125 11.125 0.53125 Z M 14.046875 -6.125 C 15.066406 -6.125 15.910156 -6.46875 16.578125 -7.15625 C 17.242188 -7.84375 17.578125 -8.65625 17.578125 -9.59375 L 17.578125 -20.90625 C 17.578125 -21.925781 17.242188 -22.769531 16.578125 -23.4375 C 15.910156 -24.101562 15.066406 -24.4375 14.046875 -24.4375 C 13.160156 -24.4375 12.375 -24.101562 11.6875 -23.4375 C 11 -22.769531 10.65625 -21.925781 10.65625 -20.90625 L 10.65625 -9.59375 C 10.65625 -8.65625 11 -7.84375 11.6875 -7.15625 C 12.375 -6.46875 13.160156 -6.125 14.046875 -6.125 Z M 14.046875 -6.125 "/></g></g></g><g fill="#ff0000" fill-opacity="1"><g transform="translate(153.467676, 197.732294)"><g><path d="M 2.921875 -28.359375 L 5.1875 -41.140625 L 13.109375 -41.140625 L 9.125 -28.359375 Z M 2.921875 -28.359375 "/></g></g></g><g fill="#ff0000" fill-opacity="1"><g transform="translate(169.514077, 197.732294)"><g><path d="M 14.84375 0.46875 C 12.488281 0.46875 10.378906 -0.03125 8.515625 -1.03125 C 6.648438 -2.03125 5.195312 -3.40625 4.15625 -5.15625 C 3.113281 -6.914062 2.59375 -8.878906 2.59375 -11.046875 L 2.59375 -30.09375 C 2.59375 -32.3125 3.113281 -34.285156 4.15625 -36.015625 C 5.195312 -37.742188 6.648438 -39.109375 8.515625 -40.109375 C 10.378906 -41.109375 12.488281 -41.609375 14.84375 -41.609375 C 17.238281 -41.609375 19.359375 -41.109375 21.203125 -40.109375 C 23.046875 -39.109375 24.488281 -37.742188 25.53125 -36.015625 C 26.570312 -34.285156 27.09375 -32.3125 27.09375 -30.09375 L 27.09375 -11.046875 C 27.09375 -9.054688 26.648438 -7.238281 25.765625 -5.59375 L 30.765625 -5.59375 L 30.765625 0.46875 Z M 14.84375 -6.1875 C 15.863281 -6.1875 16.828125 -6.519531 17.734375 -7.1875 C 18.648438 -7.851562 19.109375 -9.007812 19.109375 -10.65625 L 19.109375 -30.5 C 19.109375 -32.132812 18.648438 -33.285156 17.734375 -33.953125 C 16.828125 -34.617188 15.863281 -34.953125 14.84375 -34.953125 C 13.820312 -34.953125 12.851562 -34.617188 11.9375 -33.953125 C 11.03125 -33.285156 10.578125 -32.132812 10.578125 -30.5 L 10.578125 -10.65625 C 10.578125 -9.007812 11.03125 -7.851562 11.9375 -7.1875 C 12.851562 -6.519531 13.820312 -6.1875 14.84375 -6.1875 Z M 14.84375 -6.1875 "/></g></g></g><g fill="#ff0000" fill-opacity="1"><g transform="translate(200.541558, 197.732294)"><g><path d="M 11.125 0.46875 C 9.5625 0.46875 8.132812 0.09375 6.84375 -0.65625 C 5.5625 -1.414062 4.53125 -2.425781 3.75 -3.6875 C 2.976562 -4.957031 2.59375 -6.347656 2.59375 -7.859375 L 2.59375 -30.625 L 10.578125 -30.625 L 10.578125 -9.71875 C 10.578125 -8.738281 10.929688 -7.90625 11.640625 -7.21875 C 12.359375 -6.53125 13.160156 -6.1875 14.046875 -6.1875 C 15.066406 -6.1875 15.910156 -6.53125 16.578125 -7.21875 C 17.242188 -7.90625 17.578125 -8.738281 17.578125 -9.71875 L 17.578125 -30.625 L 25.5625 -30.625 L 25.5625 0 L 18.90625 0 L 18.046875 -2.390625 C 16.890625 -0.972656 15.675781 -0.144531 14.40625 0.09375 C 13.144531 0.34375 12.050781 0.46875 11.125 0.46875 Z M 11.125 0.46875 "/></g></g></g><g fill="#ff0000" fill-opacity="1"><g transform="translate(229.038896, 197.732294)"><g><path d="M 2.921875 -33.6875 L 2.921875 -42.28125 L 10.921875 -42.28125 L 10.921875 -33.6875 Z M 2.921875 0 L 2.921875 -30.625 L 10.921875 -30.625 L 10.921875 0 Z M 2.921875 0 "/></g></g></g><g fill="#ff0000" fill-opacity="1"><g transform="translate(242.888071, 197.732294)"><g><path d="M 12.1875 0.46875 C 9.65625 0.46875 7.613281 -0.0507812 6.0625 -1.09375 C 4.507812 -2.132812 3.375 -3.410156 2.65625 -4.921875 C 1.945312 -6.429688 1.550781 -7.875 1.46875 -9.25 L 7.921875 -9.25 C 8.140625 -8.144531 8.601562 -7.320312 9.3125 -6.78125 C 10.03125 -6.25 10.8125 -5.984375 11.65625 -5.984375 C 12.625 -5.984375 13.394531 -6.128906 13.96875 -6.421875 C 14.550781 -6.710938 14.84375 -7.28125 14.84375 -8.125 C 14.84375 -9.007812 14.429688 -9.726562 13.609375 -10.28125 C 12.796875 -10.84375 11.832031 -11.363281 10.71875 -11.84375 C 9.914062 -12.207031 9.015625 -12.65625 8.015625 -13.1875 C 7.023438 -13.71875 6.0625 -14.367188 5.125 -15.140625 C 4.195312 -15.921875 3.421875 -16.851562 2.796875 -17.9375 C 2.171875 -19.03125 1.859375 -20.332031 1.859375 -21.84375 C 1.859375 -24.101562 2.378906 -25.898438 3.421875 -27.234375 C 4.472656 -28.566406 5.796875 -29.53125 7.390625 -30.125 C 8.984375 -30.726562 10.5625 -31.03125 12.125 -31.03125 C 13.675781 -31.03125 15.226562 -30.6875 16.78125 -30 C 18.332031 -29.3125 19.660156 -28.234375 20.765625 -26.765625 C 21.878906 -25.296875 22.476562 -23.382812 22.5625 -21.03125 L 16.109375 -21.03125 C 15.890625 -22.101562 15.425781 -22.9375 14.71875 -23.53125 C 14.007812 -24.132812 13.273438 -24.4375 12.515625 -24.4375 C 12.515625 -24.4375 12.289062 -24.398438 11.84375 -24.328125 C 11.40625 -24.265625 10.960938 -24.054688 10.515625 -23.703125 C 10.078125 -23.347656 9.859375 -22.75 9.859375 -21.90625 C 9.859375 -21.019531 10.488281 -20.195312 11.75 -19.4375 C 13.019531 -18.6875 14.472656 -17.820312 16.109375 -16.84375 C 17.171875 -16.21875 18.222656 -15.539062 19.265625 -14.8125 C 20.316406 -14.082031 21.175781 -13.191406 21.84375 -12.140625 C 22.507812 -11.097656 22.84375 -9.78125 22.84375 -8.1875 C 22.84375 -7.382812 22.675781 -6.484375 22.34375 -5.484375 C 22.007812 -4.492188 21.441406 -3.550781 20.640625 -2.65625 C 19.835938 -1.769531 18.75 -1.023438 17.375 -0.421875 C 16 0.171875 14.269531 0.46875 12.1875 0.46875 Z M 12.1875 0.46875 "/></g></g></g><g clip-path="url(#7724e2c485)"><path fill="#000000" d="M 283.285156 241.996094 C 305.546875 228.246094 336.558594 209.113281 370.9375 196.160156 C 372.429688 188.90625 373.957031 179.289062 375 172.101562 C 342.148438 157.757812 304.019531 139.253906 267 125.085938 C 267.105469 136.300781 267.589844 147.273438 268.527344 158.382812 C 290.960938 166.476562 312.351562 175.570312 332.527344 183.523438 C 311.867188 190.953125 292.28125 199.355469 274.917969 207.410156 C 277.035156 218.28125 280.335938 231.230469 283.285156 241.996094 Z M 283.285156 241.996094 " fill-opacity="1" fill-rule="nonzero"/></g></svg>