<svg xmlns="http://www.w3.org/2000/svg" xmlns:xlink="http://www.w3.org/1999/xlink" width="500" zoomAndPan="magnify" viewBox="0 0 375 374.999991" height="500" preserveAspectRatio="xMidYMid meet" version="1.0"><defs><g/></defs><g fill="#000000" fill-opacity="1"><g transform="translate(8.739605, 213.304297)"><g><path d="M 3.1875 -21.140625 L 16.859375 -21.140625 C 16.859375 -19.679688 17.007812 -18.390625 17.3125 -17.265625 C 17.625 -16.148438 18.1875 -15.179688 19 -14.359375 C 19.820312 -13.535156 20.914062 -12.910156 22.28125 -12.484375 C 23.65625 -12.054688 25.375 -11.84375 27.4375 -11.84375 C 30.539062 -11.84375 32.679688 -12.523438 33.859375 -13.890625 C 35.046875 -15.265625 35.640625 -16.769531 35.640625 -18.40625 C 35.640625 -20.539062 34.847656 -22.09375 33.265625 -23.0625 C 31.691406 -24.03125 29.71875 -24.832031 27.34375 -25.46875 C 24.976562 -26.113281 22.425781 -26.753906 19.6875 -27.390625 C 16.957031 -28.023438 14.40625 -29.039062 12.03125 -30.4375 C 9.664062 -31.84375 7.691406 -33.789062 6.109375 -36.28125 C 4.523438 -38.769531 3.734375 -42.171875 3.734375 -46.484375 C 3.734375 -50.679688 4.535156 -54.054688 6.140625 -56.609375 C 7.753906 -59.160156 9.71875 -61.132812 12.03125 -62.53125 C 14.34375 -63.925781 16.789062 -64.851562 19.375 -65.3125 C 21.957031 -65.769531 24.21875 -66 26.15625 -66 C 29.195312 -66 32.082031 -65.570312 34.8125 -64.71875 C 37.550781 -63.863281 39.96875 -62.554688 42.0625 -60.796875 C 44.164062 -59.035156 45.835938 -56.832031 47.078125 -54.1875 C 48.328125 -51.550781 48.953125 -48.4375 48.953125 -44.84375 L 35.28125 -44.84375 C 35.28125 -47.757812 34.640625 -50.035156 33.359375 -51.671875 C 32.085938 -53.316406 29.6875 -54.140625 26.15625 -54.140625 C 24.457031 -54.140625 23.046875 -53.957031 21.921875 -53.59375 C 20.796875 -53.226562 19.898438 -52.742188 19.234375 -52.140625 C 18.566406 -51.535156 18.09375 -50.835938 17.8125 -50.046875 C 17.539062 -49.253906 17.40625 -48.460938 17.40625 -47.671875 C 17.40625 -45.722656 17.859375 -44.15625 18.765625 -42.96875 C 19.679688 -41.789062 20.882812 -40.820312 22.375 -40.0625 C 23.863281 -39.300781 25.566406 -38.691406 27.484375 -38.234375 C 29.398438 -37.785156 31.359375 -37.300781 33.359375 -36.78125 C 35.367188 -36.257812 37.328125 -35.617188 39.234375 -34.859375 C 41.148438 -34.109375 42.851562 -33.109375 44.34375 -31.859375 C 45.832031 -30.609375 47.03125 -28.992188 47.9375 -27.015625 C 48.851562 -25.046875 49.3125 -22.570312 49.3125 -19.59375 C 49.3125 -16.800781 48.929688 -14.367188 48.171875 -12.296875 C 47.410156 -10.234375 46.40625 -8.488281 45.15625 -7.0625 C 43.914062 -5.632812 42.488281 -4.445312 40.875 -3.5 C 39.269531 -2.5625 37.613281 -1.832031 35.90625 -1.3125 C 34.207031 -0.800781 32.535156 -0.453125 30.890625 -0.265625 C 29.253906 -0.0859375 27.769531 0 26.4375 0 C 23.332031 0 20.382812 -0.421875 17.59375 -1.265625 C 14.800781 -2.117188 12.320312 -3.425781 10.15625 -5.1875 C 8 -6.957031 6.296875 -9.160156 5.046875 -11.796875 C 3.804688 -14.441406 3.1875 -17.554688 3.1875 -21.140625 Z M 3.1875 -21.140625 "/></g></g></g><g fill="#000000" fill-opacity="1"><g transform="translate(61.243067, 213.304297)"><g><path d="M 3.1875 -33 C 3.1875 -37.914062 3.976562 -42.410156 5.5625 -46.484375 C 7.144531 -50.554688 9.378906 -54.035156 12.265625 -56.921875 C 15.148438 -59.804688 18.628906 -62.039062 22.703125 -63.625 C 26.773438 -65.207031 31.269531 -66 36.1875 -66 C 41.113281 -66 45.609375 -65.207031 49.671875 -63.625 C 53.742188 -62.039062 57.222656 -59.804688 60.109375 -56.921875 C 63.003906 -54.035156 65.238281 -50.554688 66.8125 -46.484375 C 68.394531 -42.410156 69.1875 -37.914062 69.1875 -33 C 69.1875 -28.070312 68.394531 -23.570312 66.8125 -19.5 C 65.238281 -15.4375 63.003906 -11.957031 60.109375 -9.0625 C 57.222656 -6.175781 53.742188 -3.941406 49.671875 -2.359375 C 45.609375 -0.785156 41.113281 0 36.1875 0 C 31.269531 0 26.773438 -0.785156 22.703125 -2.359375 C 18.628906 -3.941406 15.148438 -6.175781 12.265625 -9.0625 C 9.378906 -11.957031 7.144531 -15.4375 5.5625 -19.5 C 3.976562 -23.570312 3.1875 -28.070312 3.1875 -33 Z M 16.859375 -33 C 16.859375 -29.84375 17.328125 -26.957031 18.265625 -24.34375 C 19.210938 -21.726562 20.519531 -19.492188 22.1875 -17.640625 C 23.863281 -15.785156 25.882812 -14.351562 28.25 -13.34375 C 30.625 -12.34375 33.269531 -11.84375 36.1875 -11.84375 C 39.101562 -11.84375 41.742188 -12.34375 44.109375 -13.34375 C 46.484375 -14.351562 48.503906 -15.785156 50.171875 -17.640625 C 51.847656 -19.492188 53.15625 -21.726562 54.09375 -24.34375 C 55.039062 -26.957031 55.515625 -29.84375 55.515625 -33 C 55.515625 -36.15625 55.039062 -39.039062 54.09375 -41.65625 C 53.15625 -44.269531 51.847656 -46.503906 50.171875 -48.359375 C 48.503906 -50.210938 46.484375 -51.640625 44.109375 -52.640625 C 41.742188 -53.640625 39.101562 -54.140625 36.1875 -54.140625 C 33.269531 -54.140625 30.625 -53.640625 28.25 -52.640625 C 25.882812 -51.640625 23.863281 -50.210938 22.1875 -48.359375 C 20.519531 -46.503906 19.210938 -44.269531 18.265625 -41.65625 C 17.328125 -39.039062 16.859375 -36.15625 16.859375 -33 Z M 16.859375 -33 "/></g></g></g><g fill="#ff0000" fill-opacity="1"><g transform="translate(133.622706, 213.304297)"><g><path d="M 30.171875 -42.75 L 43.484375 -63.8125 L 57.15625 -63.8125 L 37.015625 -31.90625 L 57.15625 0 L 43.484375 0 L 30.171875 -21.0625 L 16.859375 0 L 3.1875 0 L 23.34375 -31.90625 L 3.1875 -63.8125 L 16.859375 -63.8125 Z M 30.171875 -42.75 "/></g></g></g><g fill="#ff0000" fill-opacity="1"><g transform="translate(193.965224, 213.304297)"><g><path d="M 3.1875 -63.8125 L 16.859375 -63.8125 L 16.859375 0 L 3.1875 0 Z M 3.1875 -63.8125 "/></g></g></g><g fill="#000000" fill-opacity="1"><g transform="translate(214.032944, 213.304297)"><g><path d="M 3.1875 -63.8125 L 43.296875 -63.8125 L 43.296875 -51.953125 L 16.859375 -51.953125 L 16.859375 -37.375 L 38.46875 -37.375 L 38.46875 -25.53125 L 16.859375 -25.53125 L 16.859375 -11.84375 L 43.296875 -11.84375 L 43.296875 0 L 3.1875 0 Z M 3.1875 -63.8125 "/></g></g></g><g fill="#000000" fill-opacity="1"><g transform="translate(260.520377, 213.304297)"><g><path d="M 17.78125 -51.953125 L 3.1875 -51.953125 L 3.1875 -63.8125 L 46.03125 -63.8125 L 46.03125 -51.953125 L 31.453125 -51.953125 L 31.453125 0 L 17.78125 0 Z M 17.78125 -51.953125 "/></g></g></g><g fill="#000000" fill-opacity="1"><g transform="translate(309.742374, 213.304297)"><g><path d="M 53.328125 -63.8125 L 35.09375 -26.53125 L 35.09375 0 L 21.421875 0 L 21.421875 -26.53125 L 3.1875 -63.8125 L 16.859375 -63.8125 L 28.265625 -40.46875 L 39.65625 -63.8125 Z M 53.328125 -63.8125 "/></g></g></g></svg>